<svg width="230" height="361" viewBox="0 0 230 361" fill="none" xmlns="http://www.w3.org/2000/svg">
<rect width="229.268" height="235" fill="white"/>
<path d="M16.9082 259.387C16.9434 260.781 17.0723 262.633 17.2949 264.941V265.047C17.2949 265.234 17.1016 265.328 16.7148 265.328C16.5742 265.328 16.4805 265.246 16.4336 265.082C15.8594 263.289 14.998 261.947 13.8496 261.057C12.8652 260.283 11.7461 259.896 10.4922 259.896C9.02734 259.896 7.87305 260.359 7.0293 261.285C6.31445 262.082 5.95703 263.084 5.95703 264.291C5.95703 266.33 7.27539 267.959 9.91211 269.178L11.7227 270.004C14.2773 271.176 16.0586 272.436 17.0664 273.783C17.9219 274.92 18.3496 276.279 18.3496 277.861C18.3496 280.357 17.4941 282.279 15.7832 283.627C14.2598 284.822 12.1973 285.42 9.5957 285.42C7.7207 285.42 5.62305 284.998 3.30273 284.154C2.8457 282.549 2.4707 280.75 2.17773 278.758L2.14258 278.477C2.14258 278.23 2.32422 278.107 2.6875 278.107C2.86328 278.107 2.98047 278.178 3.03906 278.318C3.76562 280.287 4.82031 281.805 6.20312 282.871C7.375 283.797 8.64062 284.26 10 284.26C11.7344 284.26 13.1055 283.721 14.1133 282.643C14.9688 281.729 15.3965 280.586 15.3965 279.215C15.3965 277.797 14.9629 276.602 14.0957 275.629C13.3105 274.75 12.0156 273.859 10.2109 272.957L8.40039 272.061C6.32617 271.018 4.89062 269.916 4.09375 268.756C3.39062 267.736 3.03906 266.512 3.03906 265.082C3.03906 263.113 3.81836 261.525 5.37695 260.318C6.74805 259.264 8.45312 258.736 10.4922 258.736C11.5234 258.736 12.5078 258.883 13.4453 259.176C14.125 259.387 14.8809 259.492 15.7129 259.492C16.1465 259.492 16.5449 259.457 16.9082 259.387ZM28.3867 272.236V279.268C28.3867 280.803 28.416 281.793 28.4746 282.238C28.5215 282.555 28.6211 282.848 28.7734 283.117C29.0195 283.527 29.9805 283.803 31.6562 283.943C31.9023 283.967 32.0254 284.107 32.0254 284.365C32.0254 284.682 31.9023 284.84 31.6562 284.84C29.7695 284.746 28.1875 284.699 26.9102 284.699C25.6211 284.699 24.0801 284.746 22.2871 284.84C22.0996 284.84 22.0059 284.682 22.0059 284.365C22.0059 284.107 22.0996 283.967 22.2871 283.943C23.2949 283.85 23.9746 283.738 24.3262 283.609C24.6191 283.504 24.8418 283.34 24.9941 283.117C25.2871 282.719 25.4336 281.119 25.4336 278.318V265.697C25.4336 263.143 25.2988 261.613 25.0293 261.109C24.8066 260.699 23.8457 260.424 22.1465 260.283C21.959 260.26 21.8652 260.119 21.8652 259.861C21.8652 259.475 21.959 259.281 22.1465 259.281C24.5723 259.398 26.1602 259.457 26.9102 259.457C27.7188 259.457 29.2422 259.398 31.4805 259.281C31.7266 259.281 31.8496 259.475 31.8496 259.861C31.8496 260.107 31.7266 260.248 31.4805 260.283C30.4492 260.4 29.7637 260.518 29.4238 260.635C29.166 260.729 28.9668 260.887 28.8262 261.109C28.5332 261.613 28.3867 262.85 28.3867 264.818V270.654C30.0156 270.725 32.3301 270.76 35.3301 270.76C38.2832 270.76 40.5391 270.725 42.0977 270.654V265.697C42.0977 263.072 41.9629 261.543 41.6934 261.109C41.4473 260.699 40.5039 260.424 38.8633 260.283C38.6406 260.26 38.5293 260.119 38.5293 259.861C38.5293 259.475 38.6348 259.281 38.8457 259.281C41.2129 259.398 42.8008 259.457 43.6094 259.457C44.3828 259.457 45.9238 259.398 48.2324 259.281C48.4668 259.281 48.584 259.475 48.584 259.861C48.584 260.119 48.4668 260.26 48.2324 260.283C46.709 260.4 45.8066 260.676 45.5254 261.109C45.2324 261.566 45.0859 263.096 45.0859 265.697V279.145C45.0859 280.715 45.1211 281.752 45.1914 282.256C45.2383 282.584 45.332 282.871 45.4727 283.117C45.6484 283.363 45.9238 283.539 46.2988 283.645C46.7207 283.762 47.4355 283.861 48.4434 283.943C48.6309 283.967 48.7246 284.107 48.7246 284.365C48.7246 284.682 48.6309 284.84 48.4434 284.84C46.416 284.746 44.8047 284.699 43.6094 284.699C42.2617 284.699 40.7383 284.746 39.0391 284.84C38.8281 284.84 38.7227 284.682 38.7227 284.365C38.7227 284.107 38.8281 283.967 39.0391 283.943C40.5508 283.803 41.4297 283.527 41.6758 283.117C41.957 282.613 42.0977 281.014 42.0977 278.318V272.236C40.5391 272.119 38.2832 272.061 35.3301 272.061C32.3301 272.061 30.0156 272.119 28.3867 272.236ZM51.9766 283.908C53.4531 283.791 54.3262 283.504 54.5957 283.047C54.8066 282.707 54.9355 282.244 54.9824 281.658C55.041 281.049 55.0703 279.936 55.0703 278.318V265.697C55.0703 263.822 55.041 262.633 54.9824 262.129C54.9355 261.742 54.8184 261.414 54.6309 261.145C54.3496 260.711 53.4004 260.424 51.7832 260.283C51.5957 260.26 51.502 260.119 51.502 259.861C51.502 259.475 51.5957 259.281 51.7832 259.281C54.1504 259.398 55.7148 259.457 56.4766 259.457C57.3203 259.457 58.8555 259.398 61.082 259.281C61.3281 259.281 61.4512 259.475 61.4512 259.861C61.4512 260.119 61.3281 260.26 61.082 260.283C59.6055 260.436 58.7324 260.723 58.4629 261.145C58.1465 261.637 57.9883 263.154 57.9883 265.697V279.689C57.9883 281.506 58.1348 282.625 58.4277 283.047C58.6035 283.305 58.8848 283.492 59.2715 283.609C59.6699 283.727 60.3379 283.826 61.2754 283.908C61.5098 283.932 61.627 284.084 61.627 284.365C61.627 284.682 61.5098 284.84 61.2754 284.84C59.377 284.746 57.7773 284.699 56.4766 284.699C55.1758 284.699 53.6699 284.746 51.959 284.84C51.7715 284.84 51.6777 284.682 51.6777 284.365C51.6777 284.096 51.7773 283.943 51.9766 283.908ZM69.8887 263.061H69.4844L69.625 278.389C69.6602 280.955 69.8535 282.52 70.2051 283.082C70.5098 283.562 71.4355 283.861 72.9824 283.979C73.1699 284.014 73.2637 284.154 73.2637 284.4C73.2637 284.693 73.1699 284.84 72.9824 284.84C72.6426 284.828 72.1621 284.816 71.541 284.805C70.2871 284.758 69.3965 284.734 68.8691 284.734C68.459 284.734 67.0879 284.77 64.7559 284.84C64.5215 284.84 64.4043 284.693 64.4043 284.4C64.4043 284.143 64.5215 284.002 64.7559 283.979C66.1504 283.838 66.9824 283.527 67.252 283.047C67.627 282.367 67.832 280.814 67.8672 278.389L68.0781 265.082C68.1133 263.137 67.9316 261.9 67.5332 261.373C67.123 260.834 66.1387 260.482 64.5801 260.318C64.3457 260.295 64.2285 260.154 64.2285 259.896C64.2285 259.486 64.3457 259.281 64.5801 259.281C65.8223 259.352 66.9297 259.387 67.9023 259.387C69.0508 259.387 70.1406 259.375 71.1719 259.352C71.8281 260.605 72.7422 262.059 73.9141 263.711L82.2637 275.594C83.7871 277.785 84.9297 279.449 85.6914 280.586V276.156L85.6562 265.697C85.6562 263.26 85.4512 261.742 85.041 261.145C84.748 260.699 83.834 260.412 82.2988 260.283C82.0879 260.26 81.9824 260.119 81.9824 259.861C81.9824 259.475 82.0879 259.281 82.2988 259.281C84.2559 259.375 85.5977 259.422 86.3242 259.422C87.3086 259.422 88.6562 259.375 90.3672 259.281C90.6016 259.281 90.7188 259.475 90.7188 259.861C90.7188 260.084 90.6016 260.225 90.3672 260.283C89.0547 260.4 88.2402 260.688 87.9238 261.145C87.5488 261.695 87.3438 263.213 87.3086 265.697L87.0801 278.389C87.0801 279.209 87.0859 279.812 87.0977 280.199C87.0977 281.277 87.1211 282.73 87.168 284.559C86.1602 285.18 85.627 285.49 85.5684 285.49C85.4863 285.49 85.4043 285.432 85.3223 285.314C84.1973 283.463 82.832 281.395 81.2266 279.109L69.8887 263.061ZM107.172 258.701C111.227 258.701 114.496 260.102 116.98 262.902C119.148 265.352 120.232 268.381 120.232 271.99C120.232 276.15 118.838 279.514 116.049 282.08C113.635 284.307 110.676 285.42 107.172 285.42C103.141 285.42 99.877 283.996 97.3809 281.148C95.2129 278.676 94.1289 275.646 94.1289 272.061C94.1289 267.936 95.5176 264.59 98.2949 262.023C100.709 259.809 103.668 258.701 107.172 258.701ZM107.172 259.932C104.207 259.932 101.828 261.186 100.035 263.693C98.4531 265.896 97.6621 268.662 97.6621 271.99C97.6621 275.904 98.6699 278.992 100.686 281.254C102.408 283.188 104.57 284.154 107.172 284.154C110.148 284.154 112.533 282.906 114.326 280.41C115.908 278.219 116.699 275.447 116.699 272.096C116.699 268.205 115.674 265.117 113.623 262.832C111.877 260.898 109.727 259.932 107.172 259.932ZM148.27 259.387C149.078 259.41 150.086 259.422 151.293 259.422C152.301 259.422 153.537 259.375 155.002 259.281C155.236 259.281 155.354 259.463 155.354 259.826C155.354 260.107 155.236 260.26 155.002 260.283C153.467 260.377 152.553 260.664 152.26 261.145C151.967 261.625 151.82 262.551 151.82 263.922C151.82 264.109 151.82 264.256 151.82 264.361L151.979 278.318C151.99 280.193 152.037 281.412 152.119 281.975C152.189 282.396 152.318 282.754 152.506 283.047C152.705 283.316 152.998 283.51 153.385 283.627C153.76 283.732 154.41 283.826 155.336 283.908C155.57 283.943 155.688 284.096 155.688 284.365C155.688 284.682 155.57 284.84 155.336 284.84C153.391 284.746 151.791 284.699 150.537 284.699C149.295 284.699 147.777 284.746 145.984 284.84C145.82 284.84 145.738 284.682 145.738 284.365C145.738 284.096 145.82 283.943 145.984 283.908C147.508 283.791 148.41 283.504 148.691 283.047C148.984 282.578 149.131 281.482 149.131 279.76L149.025 263.096H148.621L143.154 275.594C141.947 278.312 140.699 281.289 139.41 284.523C139.316 284.734 139.135 284.84 138.865 284.84C138.701 284.84 138.572 284.734 138.479 284.523C137.178 281.242 136.035 278.494 135.051 276.279L129.32 263.096H128.934L128.828 278.318C128.828 278.588 128.828 278.787 128.828 278.916C128.828 281.096 128.998 282.473 129.338 283.047C129.514 283.316 129.795 283.51 130.182 283.627C130.545 283.732 131.16 283.826 132.027 283.908C132.273 283.932 132.396 284.084 132.396 284.365C132.396 284.682 132.273 284.84 132.027 284.84C130.281 284.746 128.975 284.699 128.107 284.699C126.982 284.699 125.635 284.746 124.064 284.84C123.854 284.84 123.748 284.682 123.748 284.365C123.748 284.084 123.854 283.932 124.064 283.908C125.377 283.791 126.186 283.492 126.49 283.012C126.748 282.543 126.924 281.998 127.018 281.377C127.111 280.744 127.176 279.725 127.211 278.318L127.527 263.957V263.623C127.527 262.393 127.381 261.566 127.088 261.145C126.76 260.723 125.822 260.436 124.275 260.283C124.064 260.26 123.959 260.119 123.959 259.861C123.959 259.475 124.064 259.281 124.275 259.281C126.139 259.375 127.428 259.422 128.143 259.422C129.314 259.422 130.357 259.41 131.271 259.387C131.67 260.805 132.15 262.164 132.713 263.465L137.652 275.154C137.945 275.822 138.32 276.701 138.777 277.791C139.258 278.951 139.586 279.742 139.762 280.164C140.77 277.75 141.49 276.08 141.924 275.154L146.564 263.957C147.174 262.574 147.742 261.051 148.27 259.387ZM158.781 283.908C160.258 283.791 161.131 283.504 161.4 283.047C161.611 282.707 161.74 282.244 161.787 281.658C161.846 281.049 161.875 279.936 161.875 278.318V265.697C161.875 263.822 161.846 262.633 161.787 262.129C161.74 261.742 161.623 261.414 161.436 261.145C161.154 260.711 160.205 260.424 158.588 260.283C158.4 260.26 158.307 260.119 158.307 259.861C158.307 259.475 158.4 259.281 158.588 259.281C160.955 259.398 162.52 259.457 163.281 259.457C164.125 259.457 165.66 259.398 167.887 259.281C168.133 259.281 168.256 259.475 168.256 259.861C168.256 260.119 168.133 260.26 167.887 260.283C166.41 260.436 165.537 260.723 165.268 261.145C164.951 261.637 164.793 263.154 164.793 265.697V279.689C164.793 281.506 164.939 282.625 165.232 283.047C165.408 283.305 165.689 283.492 166.076 283.609C166.475 283.727 167.143 283.826 168.08 283.908C168.314 283.932 168.432 284.084 168.432 284.365C168.432 284.682 168.314 284.84 168.08 284.84C166.182 284.746 164.582 284.699 163.281 284.699C161.98 284.699 160.475 284.746 158.764 284.84C158.576 284.84 158.482 284.682 158.482 284.365C158.482 284.096 158.582 283.943 158.781 283.908ZM180.033 273.062C179.893 272.84 179.623 272.395 179.225 271.727C178.955 271.258 178.732 270.877 178.557 270.584L175.252 265.188C173.857 262.914 172.967 261.584 172.58 261.197C172.041 260.682 171.209 260.377 170.084 260.283C169.896 260.26 169.803 260.119 169.803 259.861C169.803 259.475 169.896 259.281 170.084 259.281C171.725 259.398 173.248 259.457 174.654 259.457C176.189 259.457 177.719 259.398 179.242 259.281C179.43 259.281 179.523 259.475 179.523 259.861C179.523 260.119 179.43 260.26 179.242 260.283C178.176 260.4 177.496 260.553 177.203 260.74C176.957 260.904 176.834 261.186 176.834 261.584C176.834 261.994 177.18 262.785 177.871 263.957L181.158 269.389C181.357 269.693 181.592 270.074 181.861 270.531C182.154 271.012 182.348 271.328 182.441 271.48C182.758 270.918 183.156 270.25 183.637 269.477L186.625 264.186C187.363 262.896 187.732 262.053 187.732 261.654C187.732 261.197 187.545 260.869 187.17 260.67C186.783 260.459 186.133 260.33 185.219 260.283C184.973 260.26 184.85 260.119 184.85 259.861C184.85 259.475 184.973 259.281 185.219 259.281C187.445 259.398 188.846 259.457 189.42 259.457C189.713 259.457 190.979 259.398 193.217 259.281C193.404 259.281 193.498 259.475 193.498 259.861C193.498 260.119 193.404 260.26 193.217 260.283C192.139 260.389 191.295 260.693 190.686 261.197C190.24 261.537 189.344 262.797 187.996 264.977L184.639 270.303C184.135 271.135 183.596 272.02 183.021 272.957L182.986 274.539V279.268C182.986 281.342 183.121 282.602 183.391 283.047C183.66 283.504 184.645 283.791 186.344 283.908C186.531 283.943 186.625 284.096 186.625 284.365C186.625 284.682 186.555 284.84 186.414 284.84C184.328 284.746 182.693 284.699 181.51 284.699C180.186 284.699 178.697 284.746 177.045 284.84C176.775 284.84 176.641 284.682 176.641 284.365C176.641 284.084 176.775 283.932 177.045 283.908C178.463 283.791 179.312 283.504 179.594 283.047C179.91 282.555 180.068 281.172 180.068 278.898V274.504L180.033 273.062ZM208.404 274.838C206.717 274.744 205.346 274.697 204.291 274.697C202.697 274.697 201.197 274.744 199.791 274.838L198.314 278.863C197.764 280.328 197.488 281.436 197.488 282.186C197.488 282.795 197.699 283.217 198.121 283.451C198.543 283.674 199.34 283.826 200.512 283.908C200.723 283.932 200.828 284.084 200.828 284.365C200.828 284.682 200.723 284.84 200.512 284.84C197.898 284.77 196.457 284.734 196.188 284.734C194.887 284.734 193.674 284.77 192.549 284.84C192.338 284.84 192.232 284.682 192.232 284.365C192.232 284.084 192.338 283.932 192.549 283.908C193.51 283.779 194.195 283.492 194.605 283.047C195.145 282.461 195.854 281.02 196.732 278.723L200.986 267.455C202.404 263.658 203.312 261.104 203.711 259.791L205.768 258.771C205.932 258.771 206.037 258.871 206.084 259.07C206.822 261.543 207.76 264.396 208.896 267.631L212.939 279.004C213.689 281.113 214.275 282.461 214.697 283.047C215.025 283.527 215.887 283.814 217.281 283.908C217.551 283.932 217.686 284.084 217.686 284.365C217.686 284.682 217.557 284.84 217.299 284.84C214.615 284.77 213.051 284.734 212.605 284.734C212.219 284.734 210.684 284.77 208 284.84C207.789 284.84 207.684 284.682 207.684 284.365C207.684 284.084 207.789 283.932 208 283.908C209.242 283.814 210.039 283.645 210.391 283.398C210.648 283.211 210.777 282.877 210.777 282.396C210.777 281.951 210.502 280.932 209.951 279.338L208.404 274.838ZM204.186 262.621C204.01 263.148 203.723 263.939 203.324 264.994C202.891 266.166 202.562 267.057 202.34 267.666L200.301 273.396C201.156 273.443 202.486 273.467 204.291 273.467C205.943 273.467 207.156 273.443 207.93 273.396L205.873 267.666C205.346 266.107 204.783 264.426 204.186 262.621ZM64.668 317.686C64.7852 319.643 64.9902 321.57 65.2832 323.469V323.574C65.2832 323.773 65.0781 323.873 64.668 323.873C64.5156 323.873 64.4043 323.791 64.334 323.627C63.6191 321.787 62.6113 320.393 61.3105 319.443C59.9629 318.436 58.3574 317.932 56.4941 317.932C53.5059 317.932 51.0625 319.191 49.1641 321.711C47.4766 323.949 46.6328 326.709 46.6328 329.99C46.6328 333.811 47.7461 336.869 49.9727 339.166C51.8711 341.135 54.2148 342.119 57.0039 342.119C59.5703 342.119 61.6445 341.434 63.2266 340.062C63.3438 339.219 63.4023 338.416 63.4023 337.654C63.4023 335.803 63.373 334.602 63.3145 334.051C63.2559 333.594 63.1387 333.23 62.9629 332.961C62.7754 332.668 62.4766 332.463 62.0664 332.346C61.6797 332.229 61.041 332.135 60.1504 332.064C59.9395 332.041 59.834 331.877 59.834 331.572C59.834 331.279 59.9395 331.133 60.1504 331.133C62.9629 331.215 64.4922 331.256 64.7383 331.256C65.3477 331.256 66.0977 331.238 66.9883 331.203C68.1133 331.156 68.7578 331.133 68.9219 331.133C69.1328 331.133 69.2383 331.279 69.2383 331.572C69.2383 331.877 69.1328 332.041 68.9219 332.064C68.1016 332.146 67.5391 332.252 67.2344 332.381C66.9766 332.498 66.7715 332.697 66.6191 332.979C66.3027 333.529 66.1445 334.918 66.1445 337.145C66.1445 339.172 66.2148 340.906 66.3555 342.348C66.3555 342.488 66.2617 342.559 66.0742 342.559C65.3828 342.477 64.791 342.436 64.2988 342.436C63.7832 342.436 62.957 342.559 61.8203 342.805C59.875 343.215 58.041 343.42 56.3184 343.42C52.0996 343.42 48.748 342.002 46.2637 339.166C44.1309 336.729 43.0645 333.693 43.0645 330.061C43.0645 326.053 44.4414 322.76 47.1953 320.182C49.6797 317.861 52.7559 316.701 56.4238 316.701C57.877 316.701 59.3184 316.895 60.748 317.281C61.7207 317.598 62.6289 317.756 63.4727 317.756C63.707 317.756 64.1055 317.732 64.668 317.686ZM77.9043 330.535V336.318C77.9043 338.193 77.9336 339.418 77.9922 339.992C78.0391 340.449 78.1445 340.801 78.3086 341.047C78.5898 341.504 79.5098 341.791 81.0684 341.908C81.3379 341.932 81.4727 342.084 81.4727 342.365C81.4727 342.682 81.3555 342.84 81.1211 342.84C79.1758 342.746 77.6113 342.699 76.4277 342.699C75.127 342.699 73.5977 342.746 71.8398 342.84C71.6289 342.84 71.5234 342.682 71.5234 342.365C71.5234 342.084 71.6289 341.932 71.8398 341.908C73.3867 341.768 74.2891 341.48 74.5469 341.047C74.8398 340.531 74.9863 338.955 74.9863 336.318V323.117C74.9863 321.547 74.957 320.527 74.8984 320.059C74.8516 319.684 74.7461 319.379 74.582 319.145C74.4062 318.887 74.1133 318.699 73.7031 318.582C73.2695 318.465 72.543 318.365 71.5234 318.283C71.3359 318.26 71.2422 318.119 71.2422 317.861C71.2422 317.475 71.3359 317.281 71.5234 317.281C73.4805 317.375 75.0566 317.422 76.252 317.422C76.5918 317.422 77.4062 317.398 78.6953 317.352C79.7266 317.281 80.8809 317.246 82.1582 317.246C85.2988 317.246 87.6367 317.92 89.1719 319.268C90.4492 320.369 91.0879 321.857 91.0879 323.732C91.0879 325.314 90.5547 326.674 89.4883 327.811C88.5039 328.842 87.1504 329.604 85.4277 330.096C86.916 333.072 88.5508 335.967 90.332 338.779C91.2109 340.174 91.9434 341.047 92.5293 341.398C92.9277 341.645 93.6484 341.814 94.6914 341.908C94.9023 341.932 95.0078 342.084 95.0078 342.365C95.0078 342.682 94.9141 342.84 94.7266 342.84C93.0273 342.746 91.9199 342.699 91.4043 342.699C90.4434 342.699 89.6289 342.711 88.9609 342.734C88.7148 342.125 88.2695 341.223 87.625 340.027C86.0547 337.309 84.3027 334.156 82.3691 330.57C81.748 330.617 81.1621 330.641 80.6113 330.641C79.6387 330.641 78.7363 330.605 77.9043 330.535ZM77.9043 329.305C78.7832 329.422 79.6738 329.48 80.5762 329.48C83.0723 329.48 84.9473 328.912 86.2012 327.775C87.2559 326.826 87.7832 325.549 87.7832 323.943C87.7832 320.299 85.6445 318.477 81.3672 318.477C79.7266 318.477 78.7305 318.705 78.3789 319.162C78.0625 319.572 77.9043 320.961 77.9043 323.328V329.305ZM109.158 316.701C113.213 316.701 116.482 318.102 118.967 320.902C121.135 323.352 122.219 326.381 122.219 329.99C122.219 334.15 120.824 337.514 118.035 340.08C115.621 342.307 112.662 343.42 109.158 343.42C105.127 343.42 101.863 341.996 99.3672 339.148C97.1992 336.676 96.1152 333.646 96.1152 330.061C96.1152 325.936 97.5039 322.59 100.281 320.023C102.695 317.809 105.654 316.701 109.158 316.701ZM109.158 317.932C106.193 317.932 103.814 319.186 102.021 321.693C100.439 323.896 99.6484 326.662 99.6484 329.99C99.6484 333.904 100.656 336.992 102.672 339.254C104.395 341.188 106.557 342.154 109.158 342.154C112.135 342.154 114.52 340.906 116.312 338.41C117.895 336.219 118.686 333.447 118.686 330.096C118.686 326.205 117.66 323.117 115.609 320.832C113.863 318.898 111.713 317.932 109.158 317.932ZM143.664 317.281C145.621 317.375 146.992 317.422 147.777 317.422C148.727 317.422 150.08 317.375 151.838 317.281C152.049 317.281 152.154 317.475 152.154 317.861C152.154 318.119 152.049 318.26 151.838 318.283C150.455 318.447 149.617 318.752 149.324 319.197C148.926 319.795 148.709 321.295 148.674 323.697L148.604 328.074C148.557 331.098 148.533 333.283 148.533 334.631C148.533 337.443 147.631 339.617 145.826 341.152C144.01 342.688 141.812 343.455 139.234 343.455C135.965 343.455 133.328 342.506 131.324 340.607C129.93 339.283 129.232 337.473 129.232 335.176L129.303 328.268V322.977C129.303 320.844 129.186 319.566 128.951 319.145C128.693 318.711 127.727 318.424 126.051 318.283C125.84 318.26 125.734 318.119 125.734 317.861C125.734 317.475 125.84 317.281 126.051 317.281C127.961 317.375 129.525 317.422 130.744 317.422C132.033 317.422 133.586 317.375 135.402 317.281C135.613 317.281 135.719 317.475 135.719 317.861C135.719 318.119 135.613 318.26 135.402 318.283C134.395 318.377 133.715 318.488 133.363 318.617C133.082 318.734 132.871 318.91 132.73 319.145C132.438 319.648 132.291 321.166 132.291 323.697V328.338L132.256 333.33C132.256 335.17 132.414 336.553 132.73 337.479C132.977 338.193 133.393 338.826 133.979 339.377C135.49 340.771 137.33 341.469 139.498 341.469C142.041 341.469 143.963 340.783 145.264 339.412C146.436 338.205 147.021 336.348 147.021 333.84C147.021 332.352 147.021 330.922 147.021 329.551L146.986 323.697C146.951 321.26 146.758 319.742 146.406 319.145C146.125 318.688 145.211 318.4 143.664 318.283C143.477 318.26 143.383 318.119 143.383 317.861C143.383 317.475 143.477 317.281 143.664 317.281ZM161.26 330.957V336.969C161.26 338.586 161.289 339.635 161.348 340.115C161.395 340.502 161.5 340.812 161.664 341.047C161.957 341.48 162.924 341.768 164.564 341.908C164.811 341.932 164.934 342.084 164.934 342.365C164.934 342.682 164.811 342.84 164.564 342.84C162.678 342.746 161.107 342.699 159.854 342.699C158.529 342.699 156.965 342.746 155.16 342.84C154.973 342.84 154.879 342.682 154.879 342.365C154.879 342.096 154.973 341.943 155.16 341.908C156.156 341.838 156.842 341.727 157.217 341.574C157.51 341.469 157.727 341.293 157.867 341.047C158.16 340.543 158.307 338.967 158.307 336.318V323.117C158.307 320.902 158.172 319.578 157.902 319.145C157.633 318.699 156.625 318.412 154.879 318.283C154.668 318.26 154.562 318.119 154.562 317.861C154.562 317.475 154.668 317.281 154.879 317.281C156.836 317.375 158.447 317.422 159.713 317.422C160.076 317.422 160.902 317.398 162.191 317.352C164.336 317.281 165.49 317.246 165.654 317.246C171.842 317.246 174.936 319.467 174.936 323.908C174.936 328.678 171.326 331.062 164.107 331.062C163.041 331.062 162.092 331.027 161.26 330.957ZM161.26 329.656C162.092 329.797 163.029 329.867 164.072 329.867C166.662 329.867 168.613 329.275 169.926 328.092C171.039 327.096 171.596 325.748 171.596 324.049C171.596 322.15 170.951 320.721 169.662 319.76C168.514 318.904 166.926 318.477 164.898 318.477C163.199 318.477 162.156 318.729 161.77 319.232C161.43 319.666 161.26 321.137 161.26 323.645V329.656Z" fill="white"/>
</svg>
